<svg viewBox="0 0 512 512" xml:space="preserve" xmlns="http://www.w3.org/2000/svg" fill-rule="evenodd" clip-rule="evenodd" stroke-linejoin="round" stroke-miterlimit="2"><path d="M60.713 135.684a19.825 19.825 0 0 0-6.453-16.728L6.453 61.366v-8.603H154.89L269.625 304.39 370.497 52.763 512 52.764v8.602l-40.874 39.189a11.944 11.944 0 0 0-4.541 11.472v287.947a11.942 11.942 0 0 0 4.541 11.471l39.917 39.19v8.602H310.261v-8.602l41.35-40.147c4.065-4.061 4.065-5.257 4.065-11.468V166.271L240.703 458.28h-15.536L91.308 166.271V361.98a27.006 27.006 0 0 0 7.41 22.462l53.784 65.235v8.603H0v-8.603l53.784-65.235a26.05 26.05 0 0 0 6.929-22.462V135.684Z" fill-rule="nonzero" fill="#e00de0" class="fill-000000"></path></svg>