<svg viewBox="0 0 512 512" xml:space="preserve" xmlns="http://www.w3.org/2000/svg" fill-rule="evenodd" clip-rule="evenodd" stroke-linejoin="round" stroke-miterlimit="2"><path d="M512 62.747C512 28.116 483.884 0 449.253 0H62.747C28.116 0 0 28.116 0 62.747v386.506C0 483.884 28.116 512 62.747 512h386.506C483.884 512 512 483.884 512 449.253V62.747ZM283.546 256.002c0 67.436-54.297 122.103-121.271 122.103S41 323.438 41 256.002c0-67.436 54.296-122.107 121.275-122.107 66.978 0 121.271 54.671 121.271 122.107Zm133.038 0c0 63.476-27.148 114.955-60.637 114.955-33.49 0-60.638-51.479-60.638-114.955s27.144-114.954 60.633-114.954c33.49 0 60.638 51.461 60.638 114.954h.004Zm54.416 0c0 56.859-9.547 102.981-21.326 102.981-11.78 0-21.323-46.109-21.323-102.981 0-56.872 9.547-102.981 21.323-102.981 11.775 0 21.326 46.105 21.326 102.981Z" fill="#9f0cd4" class="fill-000000"></path></svg>