<svg version="1.1" id="Capa_1" xmlns="http://www.w3.org/2000/svg" xmlns:xlink="http://www.w3.org/1999/xlink" x="0px" y="0px" viewBox="0 0 57 57" style="enable-background:new 0 0 57 57;" xml:space="preserve">
<path style="fill: none; stroke: rgb(48, 42, 47); stroke-width: 2; stroke-linecap: round; stroke-miterlimit: 10;" d="M29,27.528v-12.5
	c0-2.475,2.025-4.5,4.5-4.5h0c2.475,0,4.5,2.025,4.5,4.5v3.5c0,2.2,1.8,4,4,4h0c2.2,0,4-1.8,4-4v-16" id="id_101"></path>
<path style="fill: rgb(204, 12, 159);" d="M45.241,55.471c-1.303,0.022-5.452-0.268-9.314-1.331c-4.514-1.242-10.121-1.237-14.637,0
	c-3.892,1.066-7.521,1.354-9.314,1.331C5.142,55.383,0,48.52,0,41.499v0c0-7.684,6.287-13.972,13.972-13.972h29.274
	C50.93,27.528,57,33.815,57,41.499v0C57,48.52,52.075,55.355,45.241,55.471z" id="id_102"></path>
<line style="fill:none;stroke:#AFB6BB;stroke-width:2;stroke-linecap:round;stroke-miterlimit:10;" x1="27" y1="31.528" x2="31.632" y2="31.528"></line>
<circle style="fill: rgb(252, 252, 252);" cx="36" cy="41.528" r="3" id="id_103"></circle>
<circle style="fill: rgb(255, 255, 255);" cx="50" cy="41.528" r="3" id="id_104"></circle>
<circle style="fill: rgb(255, 255, 255);" cx="43" cy="48.528" r="3" id="id_105"></circle>
<circle style="fill: rgb(252, 252, 252);" cx="43" cy="34.528" r="3" id="id_106"></circle>
<polygon style="fill: rgb(255, 255, 255);" points="22,38.528 18,38.528 18,34.528 12,34.528 12,38.528 8,38.528 8,44.528 12,44.528 12,48.528 
	18,48.528 18,44.528 22,44.528 " id="id_107"></polygon>
<g>
</g>
<g>
</g>
<g>
</g>
<g>
</g>
<g>
</g>
<g>
</g>
<g>
</g>
<g>
</g>
<g>
</g>
<g>
</g>
<g>
</g>
<g>
</g>
<g>
</g>
<g>
</g>
<g>
</g>
</svg>