<svg width="222" height="222" viewBox="0 0 222 222" fill="none" xmlns="http://www.w3.org/2000/svg">
<circle cx="111" cy="111" r="110.5" fill="#365E67" stroke="#7BF5FB"/>
<path fill-rule="evenodd" clip-rule="evenodd" d="M110.5 35.7469C68.6627 35.7469 34.7469 69.6627 34.7469 111.5C34.7469 153.337 68.6627 187.253 110.5 187.253C152.337 187.253 186.253 153.337 186.253 111.5C186.253 69.6627 152.337 35.7469 110.5 35.7469ZM32 111.5C32 68.1456 67.1456 33 110.5 33C153.854 33 189 68.1456 189 111.5C189 154.854 153.854 190 110.5 190C67.1456 190 32 154.854 32 111.5Z" fill="#407D84"/>
<path fill-rule="evenodd" clip-rule="evenodd" d="M21.0922 135.841C21.9014 135.602 22.7532 136.057 22.9947 136.857C28.7491 155.92 40.6385 172.606 56.8573 184.38C57.538 184.874 57.6846 185.821 57.1848 186.494C56.6849 187.167 55.7279 187.312 55.0473 186.817C38.2918 174.653 26.0091 157.415 20.0643 137.722C19.8228 136.922 20.283 136.08 21.0922 135.841Z" fill="#407D84"/>
<path fill-rule="evenodd" clip-rule="evenodd" d="M201.449 137.476C202.251 137.725 202.698 138.576 202.448 139.377C196.431 158.641 184.407 175.481 168.129 187.44C151.851 199.398 132.172 205.849 111.964 205.851C111.124 205.851 110.443 205.171 110.443 204.333C110.443 203.494 111.124 202.815 111.963 202.815C131.524 202.813 150.571 196.569 166.327 184.994C182.083 173.419 193.722 157.119 199.546 138.473C199.796 137.672 200.648 137.226 201.449 137.476Z" fill="#407D84"/>
<path fill-rule="evenodd" clip-rule="evenodd" d="M165.834 36.5071C150.101 25.5098 131.328 19.6945 112.133 19.8716C111.288 19.8794 110.598 19.2013 110.59 18.357C110.582 17.5128 111.26 16.8221 112.104 16.8143C131.936 16.6314 151.331 22.6394 167.586 34.0011C183.841 45.3629 196.147 61.5124 202.79 80.1993C203.072 80.9948 202.657 81.869 201.861 82.1517C201.066 82.4345 200.192 82.0188 199.909 81.2233C193.48 63.1358 181.568 47.5043 165.834 36.5071Z" fill="#407D84"/>
<path fill-rule="evenodd" clip-rule="evenodd" d="M84.2945 21.1376C84.5579 21.946 84.1155 22.8148 83.3064 23.078C66.2444 28.6278 51.1525 38.9885 39.8488 52.9119C39.3127 53.5722 38.3424 53.6733 37.6815 53.1377C37.0206 52.6021 36.9195 51.6326 37.4556 50.9723C49.1337 36.5877 64.7254 25.8839 82.3524 20.1503C83.1616 19.8871 84.0311 20.3291 84.2945 21.1376Z" fill="#407D84"/>
<path fill-rule="evenodd" clip-rule="evenodd" d="M111.066 57.0502C111.295 56.9832 111.539 56.9833 111.769 57.0503L154.923 69.6612C155.452 69.8157 155.815 70.2972 155.815 70.8439V110.669C155.815 110.669 155.815 110.669 155.815 110.669C155.817 118.336 153.906 125.884 150.252 132.64C146.598 139.396 141.314 145.149 134.872 149.387L134.872 149.387L112.104 164.35C111.688 164.624 111.147 164.624 110.731 164.35L87.9429 149.377L87.9424 149.377C81.5007 145.139 76.2169 139.386 72.5626 132.63C68.9084 125.874 66.9974 118.326 67 110.659C67 110.659 67 110.66 67 110.659V70.8439C67 70.2971 67.3631 69.8156 67.8919 69.6612L111.066 57.0502ZM69.4861 71.7662V110.659C69.4836 117.919 71.2932 125.067 74.7534 131.464C78.2136 137.861 83.2168 143.309 89.3164 147.322L111.417 161.844L133.498 147.332C133.499 147.331 133.499 147.331 133.499 147.331C139.598 143.319 144.601 137.871 148.061 131.474C151.522 125.077 153.331 117.929 153.329 110.67V71.7661L111.417 59.5183L69.4861 71.7662ZM111.417 88.3393C108.985 88.3393 106.614 89.1012 104.643 90.5163C102.673 91.9315 101.203 93.9276 100.444 96.2201C99.6845 98.5126 99.6743 100.984 100.415 103.283C101.155 105.581 102.608 107.589 104.567 109.021C105.096 109.407 105.23 110.136 104.873 110.683L99.0991 119.532H123.736L117.961 110.683C117.604 110.136 117.739 109.407 118.268 109.021C120.227 107.589 121.68 105.581 122.42 103.283C123.16 100.984 123.15 98.5126 122.391 96.2201C121.631 93.9276 120.162 91.9315 118.191 90.5163C116.221 89.1012 113.85 88.3393 111.417 88.3393ZM103.185 88.519C105.58 86.7992 108.461 85.8734 111.417 85.8734C114.374 85.8734 117.255 86.7992 119.649 88.519C122.044 90.2387 123.83 92.6645 124.753 95.4504C125.676 98.2363 125.688 101.24 124.788 104.033C124.008 106.456 122.576 108.612 120.658 110.277L127.064 120.095C127.312 120.474 127.331 120.957 127.113 121.354C126.895 121.751 126.476 121.998 126.021 121.998H96.8138C96.3584 121.998 95.9394 121.751 95.7218 121.354C95.5042 120.957 95.5228 120.474 95.7702 120.095L102.177 110.277C100.258 108.612 98.8267 106.456 98.0464 104.033C97.1467 101.24 97.1591 98.2363 98.0819 95.4504C99.0047 92.6645 100.791 90.2387 103.185 88.519Z" fill="#6BFCFC"/>
<path d="M111.408 65.1484L73.5195 76.1031V110.68C73.5197 117.163 75.1547 123.545 78.2785 129.256C81.4024 134.968 85.9179 139.831 91.422 143.412L111.408 156.408L131.385 143.412C136.891 139.832 141.408 134.969 144.534 129.258C147.66 123.546 149.296 117.164 149.297 110.68V76.1031L111.408 65.1484ZM96.7664 120.695L103.801 110.024C101.625 108.451 100.012 106.244 99.1895 103.717C98.3673 101.19 98.3786 98.4729 99.2219 95.9528C100.065 93.4327 101.697 91.2384 103.886 89.6828C106.074 88.1271 108.707 87.2896 111.408 87.2896C114.11 87.2896 116.743 88.1271 118.931 89.6828C121.119 91.2384 122.752 93.4327 123.595 95.9528C124.438 98.4729 124.45 101.19 123.627 103.717C122.805 106.244 121.191 108.451 119.016 110.024L126.05 120.695H96.7664Z" fill="#6BFCFC"/>
</svg>
